<svg xmlns="http://www.w3.org/2000/svg" width="1081.006" height="105.014" viewBox="0 0 1081.006 105.014"><g transform="translate(-349.994 -386.493)"><line x2="153" transform="translate(524.5 439)" fill="none" stroke="#4e4e4e" stroke-width="5"/><g transform="translate(354.994 465.367) rotate(-90)"><path d="M61.389,0H0" transform="translate(1.985 24.277)" fill="none" stroke="#000" stroke-linecap="round" stroke-linejoin="round" stroke-width="10"/><path d="M65.359,0H0" transform="translate(0)" fill="none" stroke="#000" stroke-linecap="round" stroke-linejoin="round" stroke-width="10"/><path d="M65.359,0H0" transform="translate(0 48.554)" fill="none" stroke="#000" stroke-linecap="round" stroke-linejoin="round" stroke-width="10"/><path d="M61.389,0H0" transform="translate(1.985 72.831)" fill="none" stroke="#000" stroke-linecap="round" stroke-linejoin="round" stroke-width="10"/></g><text transform="translate(444.494 480.507)" font-size="44" font-family="SegoeUI-Bold, Segoe UI" font-weight="700"><tspan x="0" y="0">H2</tspan></text><path d="M127.071,29.178l.077-.058-28.56-21.7L90.45,13.6l16.2,12.31c-7.217,2.1-12.36,7.351-12.36,13.594,0,8.051,8.6,14.585,19.193,14.585a25.027,25.027,0,0,0,7.677-1.225V94.929c0,3.209-3.455,5.834-7.677,5.834s-7.677-2.625-7.677-5.834V68.675c0-6.418-6.91-11.668-15.355-11.668H82.773V16.168c0-6.418-6.91-11.668-15.355-11.668H21.355C12.91,4.5,6,9.751,6,16.168v93.346H82.773V65.758H94.289V94.929c0,8.051,8.6,14.585,19.193,14.585s19.193-6.534,19.193-14.585V39.5C132.675,35.479,130.526,31.8,127.071,29.178ZM67.418,45.339H21.355V16.168H67.418Zm46.064,0c-4.223,0-7.677-2.625-7.677-5.834s3.455-5.834,7.677-5.834,7.677,2.625,7.677,5.834S117.7,45.339,113.482,45.339Z" transform="translate(692.311 381.993)"/><path d="M103,6.535A9.667,9.667,0,0,0,93.813,0H22.644a9.729,9.729,0,0,0-9.187,6.535L0,45.289V97.048a6.489,6.489,0,0,0,6.47,6.47h6.47a6.489,6.489,0,0,0,6.47-6.47v-6.47H97.048v6.47a6.489,6.489,0,0,0,6.47,6.47h6.47a6.489,6.489,0,0,0,6.47-6.47V45.289L103,6.535ZM22.644,71.168a9.7,9.7,0,1,1,9.7-9.7A9.692,9.692,0,0,1,22.644,71.168Zm71.168,0a9.7,9.7,0,1,1,9.7-9.7A9.692,9.692,0,0,1,93.813,71.168ZM12.94,38.819,22.644,9.7H93.813l9.7,29.114Z" transform="translate(1030.803 386.493)"/><path d="M85.389,4.5H14.611A10.141,10.141,0,0,0,4.5,14.611V85.389A10.141,10.141,0,0,0,14.611,95.5H85.389A10.141,10.141,0,0,0,95.5,85.389V14.611A10.141,10.141,0,0,0,85.389,4.5ZM34.833,75.278H24.722V39.889H34.833Zm20.222,0H44.944V24.722H55.056Zm20.222,0H65.167V55.056H75.278Z" transform="translate(1335.5 388.5)"/><line x2="153" transform="translate(856.993 439)" fill="none" stroke="#4e4e4e" stroke-width="5"/><line x2="153" transform="translate(1166.993 438.251)" fill="none" stroke="#4e4e4e" stroke-width="5"/></g></svg>